<?xml version="1.0" encoding="utf-8"?>
<svg viewBox="0 0 393.061 452.653" xmlns="http://www.w3.org/2000/svg">
  <g transform="matrix(1, 0, 0, 1, 7.16783, -397.802984)">
    <path style="stroke:none; fill:#ffffff" d="M 5.7 761.29C 5.8 761.69 6 762.09 6.3 762.49C 7.3 763.99 9.5 765.49 13.1 766.99L 122.4 813.19C 132.2 817.39 142.1 817.39 151.9 813.19L 352 728.59C 356.5 726.69 358.9 724.69 359.3 722.89C 359.3 722.49 359.3 722.09 359.3 721.69C 358.9 719.89 356.4 717.99 352 716.09L 242.7 669.79C 232.8 665.59 223 665.59 213.1 669.79L 13.1 754.49C 9.5 755.99 7.3 757.39 6.3 758.99C 5.9 759.39 5.7 759.99 5.7 760.49C 5.6 760.69 5.6 760.99 5.7 761.29zM 51.8 774.79L 105.9 797.59L 51.8 774.79zM 190.1 703.99C 212 713.89 233.9 723.79 255.7 733.69C 233.9 723.79 212 713.89 190.1 703.99zM 218.6 691.09C 240.4 701.09 262.3 710.89 284.1 720.79C 262.3 710.89 240.4 701.09 218.6 691.09zM 104.8 742.49C 126.7 752.39 148.6 762.29 170.5 772.29C 148.6 762.29 126.7 752.39 104.8 742.49zM 133.5 729.49C 155.3 739.39 177.2 749.29 199.1 759.19C 177.2 749.29 155.3 739.39 133.5 729.49zM 161.9 716.59C 183.8 726.49 205.7 736.39 227.6 746.39C 205.7 736.39 183.8 726.49 161.9 716.59z"/>
    <path style="stroke: none; fill: rgb(27, 145, 233);" d="M 6.3 762.49C 6 762.09 5.8 761.69 5.7 761.29L 5.8 780.09L 5.9 780.09C 5.8 780.29 5.8 780.39 5.8 780.59C 5.8 780.69 5.8 780.79 5.9 780.99C 6.1 782.99 8.6 784.99 13.3 786.89C 49.8 802.29 86.1 817.79 122.6 833.19C 132.4 837.39 142.3 837.39 152.1 833.19L 352.2 748.49C 357.1 746.39 359.6 744.29 359.6 742.19C 359.6 742.19 359.6 742.19 359.6 742.09L 359.3 722.89C 358.9 724.69 356.5 726.69 352 728.59L 151.9 813.19C 142.1 817.39 132.2 817.39 122.4 813.19L 13.1 766.99C 9.5 765.49 7.3 763.99 6.3 762.49z"/>
    <path style="stroke-width: 11.15; stroke-linejoin: round; stroke-linecap: round; fill: none; stroke: rgb(22, 47, 80);" d="M 359.3 722.89C 358.9 724.69 356.5 726.69 352 728.59L 151.9 813.19C 142.1 817.39 132.2 817.39 122.4 813.19L 13.1 766.99C 9.5 765.49 7.3 763.99 6.3 762.49C 6 762.09 5.8 761.69 5.7 761.29"/>
    <path style="stroke-width: 11.15; stroke-linejoin: round; stroke-linecap: round; fill: none; stroke: rgb(22, 47, 80);" d="M 5.7 761.29C 5.6 760.99 5.6 760.69 5.7 760.49C 5.7 759.99 5.9 759.39 6.3 758.99C 7.3 757.39 9.5 755.99 13.1 754.49L 213.1 669.79C 223 665.59 232.8 665.59 242.7 669.79L 352 716.09C 356.4 717.99 358.9 719.89 359.3 721.69C 359.3 722.09 359.3 722.49 359.3 722.89"/>
    <path style="stroke-width: 11.15; stroke-linejoin: round; stroke-linecap: round; fill: none; stroke: rgb(22, 47, 80);" d="M 359.3 722.89L 359.6 742.09C 359.6 742.19 359.6 742.19 359.6 742.19C 359.6 744.29 357.1 746.39 352.2 748.49L 152.1 833.19C 142.3 837.39 132.4 837.39 122.6 833.19C 86.1 817.79 49.8 802.29 13.3 786.89C 8.6 784.99 6.1 782.99 5.9 780.99C 5.8 780.79 5.8 780.69 5.8 780.59C 5.8 780.39 5.8 780.29 5.9 780.09L 5.8 780.09L 5.7 761.29"/>
    <path style="stroke-width: 11.15; stroke-linejoin: round; stroke-linecap: round; fill: none; stroke: rgb(22, 47, 80);" d="M 199.1 759.19C 177.2 749.29 155.3 739.39 133.5 729.49"/>
    <path style="stroke-width: 11.15; stroke-linejoin: round; stroke-linecap: round; fill: none; stroke: rgb(22, 47, 80);" d="M 255.7 733.69C 233.9 723.79 212 713.89 190.1 703.99"/>
    <path style="stroke-width: 11.15; stroke-linejoin: round; stroke-linecap: round; fill: none; stroke: rgb(22, 47, 80);" d="M 284.1 720.79C 262.3 710.89 240.4 701.09 218.6 691.09"/>
    <path style="stroke-width: 11.15; stroke-linejoin: round; stroke-linecap: round; fill: none; stroke: rgb(22, 47, 80);" d="M 170.5 772.29C 148.6 762.29 126.7 752.39 104.8 742.49"/>
    <path style="stroke-width: 11.15; stroke-linejoin: round; stroke-linecap: round; fill: none; stroke: rgb(22, 47, 80);" d="M 227.6 746.39C 205.7 736.39 183.8 726.49 161.9 716.59"/>
    <path style="stroke-width: 16.75; stroke-linejoin: round; stroke-linecap: round; fill: none; stroke: rgb(22, 47, 80);" d="M 105.9 797.59L 51.8 774.79"/>
  </g>
  <g transform="matrix(1, 0, 0, 1, 7.16783, -397.802984)">
    <path style="stroke: none; fill: rgb(40, 213, 255);" d="M 226.9 519.49C 227 519.29 227.1 518.99 227.1 518.79C 223 490.59 212.1 466.99 194.4 447.99C 176.8 429.19 154.6 416.99 127.6 411.49L 115.3 411.49C 114 411.69 112.7 411.89 111.4 412.09C 110.9 412.19 110.5 412.19 110.2 412.29C 103.8 413.49 97.8 415.09 92.1 417.09C 84.3 425.49 78.2 434.59 73.7 444.39C 70.9 450.09 68.8 455.99 67.3 462.19C 65.2 470.89 64 480.09 64 489.69C 64 502.69 66 514.79 70 526.09C 71.1 526.69 72.3 527.59 73.4 528.59C 76 531.19 77.3 534.39 77.3 538.09C 77.3 539.29 77.2 540.39 76.9 541.49C 81.1 548.99 86.3 556.09 92.6 562.99C 90.9 560.29 90 557.29 90 554.09C 90 557.29 90.9 560.29 92.6 562.99C 93.2 563.79 93.9 564.59 94.7 565.49C 95.5 566.19 96.2 566.79 97.1 567.49C 99.7 569.19 102.7 570.19 106.1 570.19C 110.6 570.19 114.4 568.59 117.5 565.49C 120.6 562.29 122.2 558.49 122.2 554.09C 122.2 558.49 120.6 562.29 117.5 565.49C 114.4 568.59 110.6 570.19 106.1 570.19C 102.7 570.19 99.7 569.19 97.1 567.49C 105.8 575.79 115.2 582.49 125.4 587.29C 126.4 587.79 127.4 588.19 128.4 588.69C 135.6 591.79 143.2 594.09 151.2 595.59C 151.2 596.39 151.1 599.09 151.1 603.59C 151.3 603.49 151.6 603.49 151.8 603.49C 156.5 602.39 160.6 600.89 164.4 598.99C 160.6 600.89 156.5 602.39 151.8 603.49C 151.6 603.49 151.3 603.49 151.1 603.59C 151 605.49 151 607.79 151 610.39C 151 627.99 158.5 644.69 173.5 660.19C 188.4 675.69 207.1 683.49 229.7 683.49C 243.5 683.49 256.7 680.19 269.2 673.39L 269.9 673.39L 270.4 673.99C 276.7 668.39 282.4 662.29 287.8 655.69C 301.6 638.69 314.9 633.79 327.9 640.99C 328.7 641.49 329.5 641.99 330.3 642.59C 332.6 644.19 334.6 645.99 336.3 647.99C 337.5 645.59 335.5 643.79 330.3 642.49C 334.9 641.69 339.1 643.79 343 648.39C 346.9 653.09 355.9 658.19 369.8 663.89C 370.6 662.39 371.4 660.99 372.1 659.39C 372.2 659.19 372.2 659.09 372.2 658.89C 368.4 617.99 350.3 591.29 317.9 578.69C 300 577.19 284.9 580.49 272.9 588.79C 260.8 596.89 250.5 602.19 242.2 604.69C 233.9 606.99 228.1 606.49 224.8 602.89C 222.7 600.59 221.7 594.79 221.7 585.59C 221.7 585.49 221.7 585.49 221.7 585.49C 219.8 578.19 219 570.99 219.5 563.49C 220.1 551.79 221.8 540.39 224.5 529.19C 224.9 527.59 225.3 525.89 225.7 524.29C 226.1 522.69 226.6 521.09 226.9 519.49zM 205.4 508.59C 205.4 517.59 204.1 525.99 201.5 533.79C 204.1 525.99 205.4 517.59 205.4 508.59C 205.4 487.39 197.9 469.19 182.9 454.09C 170.5 441.79 156.2 434.49 139.7 432.39C 156.2 434.49 170.5 441.79 182.9 454.09C 197.9 469.19 205.4 487.39 205.4 508.59zM 117.7 430.69C 118.1 431.19 118.3 431.29 118.7 431.19C 118.3 431.29 118.1 431.19 117.7 430.69zM 149.7 524.79C 153.3 524.79 156.5 526.09 159.1 528.69C 161.7 531.29 163.1 534.49 163.1 538.19C 163.1 541.89 161.7 544.99 159.1 547.59C 156.5 550.19 153.3 551.49 149.7 551.49C 146 551.49 142.8 550.19 140.2 547.59C 137.6 544.99 136.3 541.89 136.3 538.19C 136.3 534.49 137.6 531.29 140.2 528.69C 142.8 526.09 146 524.79 149.7 524.79z"/>
    <path style="stroke: none; fill: rgb(22, 47, 80);" d="M 159.1 528.69C 156.5 526.09 153.3 524.79 149.7 524.79C 146 524.79 142.8 526.09 140.2 528.69C 137.6 531.29 136.3 534.49 136.3 538.19C 136.3 541.89 137.6 544.99 140.2 547.59C 142.8 550.19 146 551.49 149.7 551.49C 153.3 551.49 156.5 550.19 159.1 547.59C 161.7 544.99 163.1 541.89 163.1 538.19C 163.1 534.49 161.7 531.29 159.1 528.69zM 148.6 533.99C 148.6 532.19 149.3 530.79 150.5 529.49C 151.8 528.29 153.2 527.59 155 527.59C 156.7 527.59 158.2 528.29 159.4 529.49C 160.6 530.79 161.3 532.19 161.3 533.99C 161.3 535.69 160.6 537.19 159.4 538.49C 158.2 539.69 156.7 540.29 155 540.29C 153.2 540.29 151.8 539.69 150.5 538.49C 149.3 537.19 148.6 535.69 148.6 533.99z"/>
    <path style="stroke:none; fill:#ffffff" d="M 150.5 529.49C 149.3 530.79 148.6 532.19 148.6 533.99C 148.6 535.69 149.3 537.19 150.5 538.49C 151.8 539.69 153.2 540.29 155 540.29C 156.7 540.29 158.2 539.69 159.4 538.49C 160.6 537.19 161.3 535.69 161.3 533.99C 161.3 532.19 160.6 530.79 159.4 529.49C 158.2 528.29 156.7 527.59 155 527.59C 153.2 527.59 151.8 528.29 150.5 529.49z"/>
    <path style="stroke:none; fill:#009fd7" d="M 221.7 585.49C 221.7 585.49 221.7 585.49 221.7 585.59C 221.7 585.49 221.7 585.49 221.7 585.49z"/>
    <path style="stroke:none; fill:#009fd7" d="M 320.3 573.59C 322.5 573.79 323.9 573.79 324.4 573.69L 316.8 573.19C 317 573.29 318.1 573.49 320.3 573.59z"/>
    <path style="stroke: none; fill: rgb(27, 145, 233);" d="M 324.4 573.69C 323.9 573.79 322.5 573.79 320.3 573.59C 318.1 573.49 317 573.29 316.8 573.19C 313.5 573.09 310.1 573.09 306.9 573.19C 278.2 574.09 251.1 581.99 225.5 596.59C 223.9 592.89 222.7 589.29 221.7 585.59C 221.7 594.79 222.7 600.59 224.8 602.89C 228.1 606.49 233.9 606.99 242.2 604.69C 250.5 602.19 260.8 596.89 272.9 588.79C 284.9 580.49 300 577.19 317.9 578.69C 324.6 576.29 328.7 574.89 330.1 574.69C 328.3 574.29 326.4 573.99 324.4 573.69z"/>
    <path style="stroke:none; fill:#ffffff" d="M 330.1 574.69C 328.7 574.89 324.6 576.29 317.9 578.69C 350.3 591.29 368.4 617.99 372.2 658.89C 372.6 657.99 373 657.09 373.3 656.09C 373.3 656.09 373.3 656.09 373.3 656.09C 373.3 655.99 373.3 655.99 373.3 655.99L 372.9 654.19L 373.3 655.99C 382.5 618.59 369.8 592.09 335.3 576.59C 333.6 575.89 331.9 575.19 330.1 574.69z"/>
    <path style="stroke:none; fill:#ffffff" d="M 227.1 518.79C 234 487.09 224.7 459.79 199.2 436.99C 175.1 415.49 147.1 406.89 115.3 411.49L 127.6 411.49C 154.6 416.99 176.8 429.19 194.4 447.99C 212.1 466.99 223 490.59 227.1 518.79z"/>
    <path style="stroke: none; fill: rgb(27, 145, 233);" d="M 37.6 467.79C 37 468.99 36.4 470.29 35.9 471.59C 23.1 500.89 25.1 529.49 41.9 557.49C 50.6 571.99 61.3 583.29 74 591.29C 87 599.59 102.1 604.39 119.2 605.69C 121.4 605.79 123.5 605.89 125.6 605.99C 135.2 606.09 143.6 605.29 151.1 603.59C 151.1 599.09 151.2 596.39 151.2 595.59C 143.2 594.09 135.6 591.79 128.4 588.69C 127.4 588.19 126.4 587.79 125.4 587.29C 115.2 582.49 105.8 575.79 97.1 567.49C 96.2 566.79 95.5 566.19 94.7 565.49C 93.9 564.59 93.2 563.79 92.6 562.99C 86.3 556.09 81.1 548.99 76.9 541.49C 76.3 543.69 75.1 545.79 73.4 547.49C 70.8 550.09 67.7 551.49 64 551.49C 63.3 551.49 62.8 551.49 62.2 551.29C 59.3 550.99 56.7 549.69 54.5 547.49C 51.9 544.99 50.6 541.79 50.6 538.09C 50.6 535.19 51.4 532.59 53 530.29C 53.4 529.69 53.9 529.09 54.5 528.59C 57.1 525.99 60.3 524.69 64 524.69C 66.1 524.69 68.1 525.19 70 526.09C 66 514.79 64 502.69 64 489.69C 64 480.09 65.2 470.89 67.3 462.19C 68.8 455.99 70.9 450.09 73.7 444.39C 78.2 434.59 84.3 425.49 92.1 417.09C 67.7 425.79 49.6 442.69 37.6 467.79z"/>
    <path style="stroke: none; fill: rgb(22, 47, 80);" d="M 73.4 528.59C 72.3 527.59 71.1 526.69 70 526.09C 68.1 525.19 66.1 524.69 64 524.69C 60.3 524.69 57.1 525.99 54.5 528.59C 53.9 529.09 53.4 529.69 53 530.29C 51.4 532.59 50.6 535.19 50.6 538.09C 50.6 541.79 51.9 544.99 54.5 547.49C 56.7 549.69 59.3 550.99 62.2 551.29C 62.8 551.49 63.3 551.49 64 551.49C 67.7 551.49 70.8 550.09 73.4 547.49C 75.1 545.79 76.3 543.69 76.9 541.49C 77.2 540.39 77.3 539.29 77.3 538.09C 77.3 534.39 76 531.19 73.4 528.59zM 69.3 527.59C 69.8 527.59 70.2 527.59 70.5 527.69C 71.8 527.89 72.8 528.49 73.7 529.49C 74.9 530.69 75.5 532.19 75.6 533.89C 75.5 535.09 75.3 536.19 74.7 537.19C 74.4 537.59 74 537.99 73.7 538.39C 72.5 539.59 71 540.29 69.3 540.29C 67.5 540.29 66 539.59 64.8 538.39C 63.5 537.09 62.9 535.69 62.9 533.89C 62.9 532.19 63.5 530.69 64.8 529.49C 66 528.19 67.5 527.59 69.3 527.59z"/>
    <path style="stroke:none; fill:#ffffff" d="M 70.5 527.69C 70.2 527.59 69.8 527.59 69.3 527.59C 67.5 527.59 66 528.19 64.8 529.49C 63.5 530.69 62.9 532.19 62.9 533.89C 62.9 535.69 63.5 537.09 64.8 538.39C 66 539.59 67.5 540.29 69.3 540.29C 71 540.29 72.5 539.59 73.7 538.39C 74 537.99 74.4 537.59 74.7 537.19C 75.3 536.19 75.5 535.09 75.6 533.89C 75.5 532.19 74.9 530.69 73.7 529.49C 72.8 528.49 71.8 527.89 70.5 527.69z"/>
    <path style="stroke: none; fill: rgb(27, 145, 233);" d="M 173.5 660.19C 158.5 644.69 151 627.99 151 610.39C 151 607.79 151 605.49 151.1 603.59C 143.6 605.29 135.2 606.09 125.6 605.99C 123.5 605.89 121.4 605.79 119.2 605.69C 113.9 642.29 126.3 670.29 156.4 689.79C 186.4 709.19 216.5 709.79 246.8 691.49C 255.3 686.39 263.2 680.59 270.4 673.99L 269.9 673.39L 269.2 673.39C 256.7 680.19 243.5 683.49 229.7 683.49C 207.1 683.49 188.4 675.69 173.5 660.19z"/>
    <path style="stroke: none; fill: rgb(27, 145, 233);" d="M 343 648.39C 339.1 643.79 334.9 641.69 330.3 642.49C 335.5 643.79 337.5 645.59 336.3 647.99C 339.7 652.19 341.6 657.29 342.2 663.39C 343 672.09 341.5 680.39 337.5 688.29L 338 688.49C 350.1 683.99 359.2 677.79 365.5 670.09C 367.1 668.09 368.5 666.09 369.8 663.89C 355.9 658.19 346.9 653.09 343 648.39z"/>
    <path style="stroke:#e21c2a; stroke-width:4.9; stroke-linejoin:round; stroke-linecap:round; fill:none" d="M 372.9 654.19L 373.3 655.99"/>
    <path style="stroke:#e21c2a; stroke-width:4.9; stroke-linejoin:round; stroke-linecap:round; fill:none" d="M 324.4 573.69C 323.9 573.79 322.5 573.79 320.3 573.59C 318.1 573.49 317 573.29 316.8 573.19"/>
    <path style="stroke-width: 11.15; stroke-linejoin: round; stroke-linecap: round; fill: none; stroke: rgb(22, 47, 80);" d="M 336.9 689.39C 337.1 689.09 337.3 688.59 337.5 688.29C 341.5 680.39 343 672.09 342.2 663.39C 341.6 657.29 339.7 652.19 336.3 647.99C 334.6 645.99 332.6 644.19 330.3 642.59C 329.5 641.99 328.7 641.49 327.9 640.99C 314.9 633.79 301.6 638.69 287.8 655.69C 282.4 662.29 276.7 668.39 270.4 673.99C 263.2 680.59 255.3 686.39 246.8 691.49C 216.5 709.79 186.4 709.19 156.4 689.79C 126.3 670.29 113.9 642.29 119.2 605.69C 102.1 604.39 87 599.59 74 591.29C 61.3 583.29 50.6 571.99 41.9 557.49C 25.1 529.49 23.1 500.89 35.9 471.59C 36.4 470.29 37 468.99 37.6 467.79C 49.6 442.69 67.7 425.79 92.1 417.09C 97.8 415.09 103.8 413.49 110.2 412.29C 110.5 412.19 110.9 412.19 111.4 412.09C 112.7 411.89 114 411.69 115.3 411.49C 147.1 406.89 175.1 415.49 199.2 436.99C 224.7 459.79 234 487.09 227.1 518.79"/>
    <path style="stroke-width: 11.15; stroke-linejoin: round; stroke-linecap: round; fill: none; stroke: rgb(22, 47, 80);" d="M 119.2 605.69C 121.4 605.79 123.5 605.89 125.6 605.99C 135.2 606.09 143.6 605.29 151.1 603.59C 151.3 603.49 151.6 603.49 151.8 603.49C 156.5 602.39 160.6 600.89 164.4 598.99"/>
    <path style="stroke-width: 11.15; stroke-linejoin: round; stroke-linecap: round; fill: none; stroke: rgb(22, 47, 80);" d="M 90 554.09C 90 557.29 90.9 560.29 92.6 562.99C 93.2 563.79 93.9 564.59 94.7 565.49C 95.5 566.19 96.2 566.79 97.1 567.49C 99.7 569.19 102.7 570.19 106.1 570.19C 110.6 570.19 114.4 568.59 117.5 565.49C 120.6 562.29 122.2 558.49 122.2 554.09"/>
    <path style="stroke-width: 11.15; stroke-linejoin: round; stroke-linecap: round; fill: none; stroke: rgb(22, 47, 80);" d="M 338 688.49C 350.1 683.99 359.2 677.79 365.5 670.09C 367.1 668.09 368.5 666.09 369.8 663.89C 370.6 662.39 371.4 660.99 372.1 659.39C 372.2 659.19 372.2 659.09 372.2 658.89C 372.6 657.99 373 657.09 373.3 656.09C 373.3 656.09 373.3 656.09 373.3 656.09C 373.3 655.99 373.3 655.99 373.3 655.99C 382.5 618.59 369.8 592.09 335.3 576.59C 333.6 575.89 331.9 575.19 330.1 574.69C 328.3 574.29 326.4 573.99 324.4 573.69L 316.8 573.19C 313.5 573.09 310.1 573.09 306.9 573.19C 278.2 574.09 251.1 581.99 225.5 596.59C 223.9 592.89 222.7 589.29 221.7 585.59C 221.7 585.49 221.7 585.49 221.7 585.49C 219.8 578.19 219 570.99 219.5 563.49C 220.1 551.79 221.8 540.39 224.5 529.19C 224.9 527.59 225.3 525.89 225.7 524.29C 226.1 522.69 226.6 521.09 226.9 519.49"/>
    <path style="stroke:#ffffff; stroke-width:11.15; stroke-linejoin:round; stroke-linecap:round; fill:none" d="M 118.7 431.19C 118.3 431.29 118.1 431.19 117.7 430.69"/>
    <path style="stroke:#ffffff; stroke-width:11.15; stroke-linejoin:round; stroke-linecap:round; fill:none" d="M 201.5 533.79C 204.1 525.99 205.4 517.59 205.4 508.59C 205.4 487.39 197.9 469.19 182.9 454.09C 170.5 441.79 156.2 434.49 139.7 432.39"/>
  </g>
</svg>